<?xml version="1.0" encoding="UTF-8"?><svg id="Layer_2" xmlns="http://www.w3.org/2000/svg" viewBox="0 0 852.5 852.5"><defs><style>.cls-1{fill:#cb2039;stroke-width:0px;}</style></defs><g id="Layer_1-2"><path class="cls-1" d="M426.25,0c-107.68,0-206.03,39.93-281.06,105.79v245.11c0,10.75,8.71,19.46,19.46,19.46h141.11c14.56.14,18.03,10.07,19.26,21.98,1.29,12.59,2.25,23.88,4.15,40.14,2.18,18.51-7.76,23.75-23,23.75H80.08c-10.75,0-19.46-8.71-19.46-19.46v-229.72C22.14,271.09,0,346.08,0,426.25c0,235.41,190.84,426.25,426.25,426.25,1.52,0,3.03-.01,4.55-.03-15.1-121.41-43.29-348.8-57.67-464.56-1.16-9.39,4.22-18.17,13.68-18.17h43.55c6.6,0,12.32,4.56,13.81,10.95,0,0,26.67,253.65,35.72,338.97,1.56,15.04,29.8,13.4,36.4-.2,43-88.66,119.48-250.59,161.25-338.57,2.86-6.06,9.46-10.68,16.13-10.61,20.14.27,47.49,0,61.85,0,13.27,0,17.96,9.05,13.68,17.49-60.51,118.86-167.77,325.41-232.37,450.24,181.81-48.7,315.68-214.59,315.68-411.76C852.5,190.84,661.66,0,426.25,0Z"/></g></svg>