<?xml version="1.0" encoding="UTF-8"?><svg id="Layer_2" xmlns="http://www.w3.org/2000/svg" viewBox="0 0 317.28 317.28"><defs><style>.cls-1{fill:#fff;}.cls-2{fill:#cb2039;}</style></defs><g id="Layer_1-2"><circle class="cls-1" cx="158.64" cy="158.64" r="158.64"/><path class="cls-2" d="M50.19,96.41l5.09-8.9,4.94,3.77-8.67,15.17-23.56-13.47,3.99-6.97,18.21,10.41Z"/><path class="cls-2" d="M71.57,77.36l-6.7,7.92-25.43-11.96,5.46-6.46,19.13,10.77-14.07-16.75,5.31-6.28,16.29,22.77Z"/><path class="cls-2" d="M104.37,43c3.27,5.54-.51,9.63-6.66,13.27l-8.19,4.84-13.81-23.37,7.29-4.3c6.55-3.87,11.55-4.83,14.25-.27,1.79,3.02.45,5.67-1.31,7.44,2.87-.97,6.28-1.26,8.44,2.4ZM85.42,38.39l2.54,4.3,1.18-.69c2.12-1.25,2.48-2.32,1.5-3.97-.81-1.38-2-1.54-4.21-.23l-1.01.59ZM96.97,46.74c-1.07-1.81-2.67-1.91-4.82-.64l-1.61.95,3.02,5.1,1.34-.79c2.12-1.25,3.3-2.54,2.07-4.62Z"/><path class="cls-2" d="M120.17,35.61l-1.42.43,2.83,9.25-7.68,2.35-7.95-25.95,9.51-2.91c7.42-2.27,11.93-.88,13.67,4.83,1.01,3.28.18,5.65-2.43,8.45l9.6,8.72-8.5,2.6-7.64-7.77ZM117.18,30.9l2.01-.62c2.09-.64,2.81-2,2.12-4.28-.63-2.05-2.14-2.61-4.42-1.91l-1.64.5,1.93,6.3Z"/><path class="cls-2" d="M153.68,34.18l-6.42.42-.67,5.32-8.37.55,6.13-27.6,9.57-.62,9.63,26.57-8.48.55-1.39-5.18ZM152.18,28.65l-2.79-10.49-1.37,10.76,4.16-.27Z"/><path class="cls-2" d="M189.61,42.94l-9.92-1.69-2.51-20.53c-.05,2.64-.03,6.44-.88,11.4l-1.42,8.3-7-1.2,4.57-26.76,9.73,1.66,2.72,20.64c.03-3.2-.02-6.37.81-11.22l1.46-8.57,7,1.2-4.57,26.76Z"/><path class="cls-2" d="M222.96,41.68c-4.36,9.93-11.35,9.96-18.28,6.92l-8.39-3.68,10.9-24.85,7.96,3.49c6.82,2.99,12.29,7.9,7.81,18.12ZM212.28,28.48l-6.36,14.5,1.46.64c3.32,1.46,5.54.39,8.01-5.26,2.48-5.64,1.53-7.85-1.62-9.23l-1.5-.66Z"/><path class="cls-2" d="M229.27,62.52l-6.62-4.56,15.39-22.36,6.62,4.56-15.39,22.36Z"/><path class="cls-2" d="M250.73,82.35l-7.07-7.16,9.93-18.14c-1.58,2.11-3.78,5.22-7.36,8.75l-5.99,5.92-4.99-5.05,19.31-19.08,6.94,7.02-9.82,18.37c1.89-2.58,3.7-5.19,7.2-8.65l6.19-6.11,4.99,5.05-19.31,19.08Z"/><path class="cls-2" d="M287.42,94.59l-5.48-1.27c.19-2.2.07-3.77-.99-5.54-1.92-3.21-5.4-3.64-10.52-.58-5.76,3.44-6.72,5.64-5.1,8.36.54.9,1.18,1.52,1.99,2.04l4.25-2.54-1.4-2.34,4.28-3.41,5.74,9.61-11.69,6.98c-3.21-1.49-6.2-4.3-7.94-7.21-4.66-7.8-2.28-13.86,5.66-18.6,7.91-4.72,15.29-2.31,19.31,4.42,2.14,3.58,2.42,7.18,1.89,10.09Z"/><path class="cls-2" d="M51.15,215.81l-4.05-1.15c.44-1.72.36-3.26-.33-4.76-.62-1.37-1.45-1.81-2.3-1.42-.98.45-.96,1.29-.6,4.4.53,4.48-.37,7-3.78,8.55-3.66,1.67-7.59-.16-9.87-5.16-1.66-3.63-1.41-6.71-.62-8.95l4.29,1.37c-.55,1.9-.54,3.74.27,5.51.75,1.64,1.82,2.04,2.8,1.59,1.12-.51,1.34-1.33.97-4.17-.65-5.25.68-7.47,3.44-8.73,3.6-1.64,7.26.51,9.18,4.72,1.4,3.06,1.49,5.72.61,8.2Z"/><path class="cls-2" d="M43.46,237.22c-1.49-.63-2.91-2.07-3.71-3.35-2.1-3.43-1.14-6.15,2.46-8.38l5.17-3.21-1.01-1.63,3.41-2.12,1.01,1.63,2.85-1.77,3.72,4.68-3.44,2.14,1.9,3.06-3.73,1.61-1.58-2.55-5.12,3.18c-1.27.79-1.36,1.45-.96,2.08.24.38.61.75,1.15,1.05l-2.12,3.58Z"/><path class="cls-2" d="M64.66,239.39l-5.09,2.79c-.2-.49-.4-.9-.71-1.31-1.18-1.51-2.71-1.13-4.59-.23l-5.75,4.48-3.65-4.69,12.64-9.85,3.19,4.09-2.07,2.22c2.06-.77,4.17-.36,5.26,1.04.39.5.57.88.78,1.44Z"/><path class="cls-2" d="M66.51,259.8l-3.55,1.82c-1.35-1.58-1.91-2.92-1.46-4.63-2.08.41-3.77-.49-5.06-1.79-2.26-2.28-2.19-5.25-.08-7.34,2.52-2.49,5.8-1.94,9.34,1.65l.8.81.28-.27c1.15-1.14,1.07-1.82-.17-3.08-.65-.66-2-1.6-3.51-2.36l1.78-3.57c1.99.86,4.06,2.32,5.34,3.62,3.58,3.63,3.67,6.49.85,9.27l-3.93,3.88c-.81.8-.96,1.29-.65,1.99ZM62.62,254.15l1.69-1.66-.44-.45c-1.18-1.19-2.13-1.35-3.03-.46-.64.63-.71,1.42-.14,1.99.53.53,1.27.69,1.93.58Z"/><path class="cls-2" d="M77.04,271.47c-1.61-.09-3.45-.96-4.62-1.89-3.14-2.52-3.15-5.4-.53-8.72l3.78-4.78-1.51-1.19,2.49-3.15,1.51,1.19,2.08-2.64,5.09,3.14-2.51,3.18,2.83,2.23-2.96,2.78-2.35-1.86-3.74,4.73c-.93,1.18-.79,1.82-.2,2.29.35.28.83.5,1.44.6l-.78,4.09Z"/><path class="cls-2" d="M95.19,276.32l-8.29-5.07c-.92,2.14-.17,3.1,1.32,4,.97.59,2.15.79,3.83.69l.36,4.01c-2.03.27-4.49.04-6.87-1.42-5.02-3.07-5.48-7.6-2.9-11.82,2.44-3.99,6.78-5.98,11.31-3.21,4.04,2.47,5.13,6.68,2.33,11.26-.27.44-.74,1.1-1.09,1.55ZM92.16,270.28c.82-1.4,1.24-2.72-.07-3.52-1.08-.66-2.01-.39-3.47,1.6l3.43,2.09.11-.18Z"/><path class="cls-2" d="M117,276.52c-1.09.03-2.55-.3-4.48-1.12,1.59,1.62,2.1,3.04,1.23,5.09-1.19,2.79-4.58,3.79-8.61,2.08-.58-.25-1.08-.46-1.54-.75-.27.02-.46.16-.55.38-.12.28-.21.72,1.14,1.3l2.13.9c3.7,1.57,5.22,4.37,4.13,6.94-1.32,3.12-5.01,3.9-10.34,1.64-6.05-2.57-6.62-5.22-5.4-8.09l4.89,2.08c-.46,1.08-.18,1.65,2.14,2.64,2.21.94,2.79.4,3.05-.2.22-.53.1-1.23-1.12-1.75l-2.04-.87c-3.59-1.52-4.41-3.44-3.72-5.07.49-1.16,1.79-1.98,3.13-2.16-1.56-1.93-1.74-3.58-.93-5.48,1.5-3.54,5.09-4.39,9.29-2.61,3.02,1.41,5.68,1.21,8.03.74l-.43,4.32ZM105.57,276.26c-.6,1.41-.11,2.33.83,2.73,1.1.47,1.97.05,2.58-1.38.55-1.3.22-2.06-.91-2.54-.97-.41-1.95-.08-2.49,1.19Z"/><path class="cls-2" d="M125.53,294.25c-2.44,3.95-6.15,5.33-11.38,4.1l.42-4.08c3.04.49,4.46.15,5.73-1.37l-1.97-.52-.32-16.66,6.09,1.61-1.22,12.49,5.57-11.34,5.92,1.56-8.84,14.2Z"/><path class="cls-2" d="M158.15,276.53l-1.75,3.63c-.91-.41-2.12-.83-3.44-.9-1.65-.08-2.21.34-2.29,1.89l-.03.63,8.84.46-.83,16-5.93-.31.62-11.99-2.91-.15-.62,11.99-5.93-.31.62-11.99-2.4-.12.21-4.02,2.4.12.05-.93c.17-3.3,2.38-5.86,7.62-5.58,2.49.13,4.52.9,5.78,1.56Z"/><path class="cls-2" d="M174.29,280.85l-.46,5.79c-.52-.11-.98-.16-1.49-.12-1.91.15-2.43,1.64-2.71,3.71l.59,7.27-5.92.48-1.29-15.97,5.17-.42.72,2.95c.49-2.15,1.99-3.68,3.75-3.83.63-.05,1.05,0,1.64.14Z"/><path class="cls-2" d="M188.56,279.84l-1.44,3.56c-1.26-.48-2.7-.66-3.96-.41-.97.19-1.27.56-1.18.97.1.53.33.73,3.48,1.05,3.15.32,5.06,1.29,5.62,4.15.64,3.24-2.02,6.03-6.37,6.89-2.77.55-5.49.08-7.41-1.13l2.16-3.61c1.29.66,2.87,1.05,4.31.77,1.03-.2,1.58-.65,1.46-1.3-.15-.76-.5-.85-3.38-1.13-3.12-.3-5.07-1.66-5.57-4.19-.56-2.83,1.43-5.57,5.85-6.45,2.33-.46,4.75-.11,6.44.83Z"/><path class="cls-2" d="M206.56,288.59c-.97,1.29-2.71,2.33-4.14,2.79-3.83,1.21-6.24-.38-7.54-4.41l-1.87-5.79-1.83.59-1.24-3.82,1.83-.59-1.03-3.2,5.44-2.48,1.24,3.85,3.43-1.11.66,4.01-2.85.92,1.85,5.74c.46,1.43,1.07,1.67,1.79,1.44.43-.14.88-.41,1.3-.86l2.96,2.92Z"/><path class="cls-2" d="M213.99,283.55c.66,1.55-.07,3.38-1.64,4.05-1.57.67-3.39-.09-4.05-1.64-.66-1.54.07-3.38,1.64-4.05,1.58-.67,3.4.09,4.05,1.64Z"/><path class="cls-2" d="M232.95,271.26l-4.17,2.67,1.53,3.83-5.43,3.48-6.15-20.87,6.21-3.99,16.38,14.31-5.51,3.53-2.87-2.97ZM229.88,268.09l-5.79-6.02,3.08,7.75,2.7-1.73Z"/><path class="cls-2" d="M240.74,264.96l-11.24-13.67,4.21-4.23,11.46,13.95c.34.42.7.47,1.07.17.21-.17.33-.35.41-.49l3.5,2.6c-.41.73-1.16,1.66-2.21,2.51-2.5,2.06-5.09,1.74-7.21-.83Z"/><path class="cls-2" d="M266.18,246.8l-4.62,5.01-9.07-6,6.78,8.49-4.6,4.98-13.95-8.5,4.07-4.41,9.1,7.08-7.02-9.33,3.76-4.08,9.58,6.55-7.53-8.78,3.86-4.19,9.64,13.17Z"/><path class="cls-2" d="M276.07,226.55l2.53,3.09c-1.26,1.65-2.45,2.48-4.22,2.4.84,1.95.31,3.79-.69,5.32-1.76,2.68-4.68,3.25-7.16,1.62-2.96-1.94-3.11-5.27-.35-9.48l.62-.95-.33-.21c-1.35-.89-2-.67-2.97.81-.51.78-1.15,2.3-1.57,3.92l-3.87-.99c.42-2.12,1.41-4.45,2.42-5.98,2.79-4.27,5.58-4.95,8.89-2.78l4.62,3.02c.95.62,1.46.67,2.08.22ZM271.37,231.54l-1.98-1.3-.35.53c-.92,1.41-.87,2.37.18,3.06.75.49,1.53.4,1.98-.28.41-.63.41-1.38.17-2Z"/><path class="cls-2" d="M285.38,215.1c3.43,3.12,4.11,7.03,1.94,11.94l-3.93-1.17c1.04-2.89.97-4.36-.3-5.89l-.87,1.84-16.43-2.75,2.7-5.69,12.06,3.49-10.13-7.56,2.62-5.53,12.34,11.3Z"/><path class="cls-2" d="M278.71,190.8l2.41,2.98c-1.04.86-1.89,2.04-2.28,3.27-.3.94-.13,1.38.27,1.51.52.17.8.07,2.61-2.53,1.82-2.6,3.59-3.79,6.36-2.9,3.14,1.01,4.29,4.69,2.92,8.92-.87,2.69-2.6,4.84-4.59,5.93l-2.1-3.64c1.21-.81,2.32-2,2.77-3.4.32-1,.2-1.7-.43-1.9-.74-.24-.99.03-2.63,2.4-1.78,2.58-3.91,3.63-6.37,2.83-2.74-.88-4.18-3.96-2.79-8.25.73-2.26,2.21-4.21,3.86-5.22Z"/><path class="cls-2" d="M158.55,52.52c-26.81,0-51.29,9.94-69.98,26.34v74.28c0,2.68,2.17,4.84,4.84,4.84h35.13c3.63.03,4.49,2.51,4.79,5.47.32,3.13.56,5.95,1.03,9.99.54,4.61-1.93,5.91-5.73,5.91h-56.29c-2.68,0-4.84-2.17-4.84-4.84v-70.45c-9.58,15.95-15.09,34.62-15.09,54.58,0,58.61,47.51,106.13,106.13,106.13.38,0,.76,0,1.13,0-3.76-30.23-10.78-73.59-14.36-102.41-.29-2.34,1.05-4.52,3.41-4.52h10.84c1.64,0,3.07,1.13,3.44,2.73,0,0,6.28,49.94,8.89,71.14.51,4.14,4.39,8.33,9.06-.05,12.41-22.28,28.18-50.57,40.15-71.04.84-1.44,2.35-2.66,4.01-2.64,5.01.07,11.82,0,15.4,0,3.3,0,4.47,2.25,3.41,4.35-15.07,29.59-41.77,67.76-57.85,98.84,45.27-12.12,78.6-53.43,78.6-102.52,0-58.61-47.51-106.13-106.13-106.13Z"/><path class="cls-2" d="M35.99,198.65c-4.8-13.55-7.41-28.13-7.41-43.3,0-16.77,3.2-32.81,9.01-47.54l-2.28-1.14c-5.97,15.08-9.27,31.5-9.27,48.68,0,15.8,2.79,30.96,7.88,45.03l2.07-1.73Z"/><path class="cls-2" d="M284.73,187.28l2.59.1c2.56-10.26,3.92-20.99,3.92-32.04,0-17.22-3.31-33.67-9.31-48.77l-2.18,1.38c5.77,14.69,8.96,30.68,8.96,47.39,0,11.02-1.38,21.72-3.97,31.94Z"/><path class="cls-2" d="M293.17,20.07l-.29,2.21h-3.78v12.31h-2.79v-12.31h-3.91v-2.21h10.78Z"/><path class="cls-2" d="M308.32,34.59h-2.71l-.38-6.07c-.13-2.17-.19-3.89-.19-5.17v-.76l-2.65,10.42h-2.63l-2.82-10.44c.03.92.04,1.62.04,2.1,0,1.27-.04,2.58-.13,3.93l-.36,5.99h-2.69l1.16-14.52h3.57l2.58,10.17,2.44-10.17h3.61l1.13,14.52Z"/></g></svg>