<?xml version="1.0" encoding="UTF-8"?><svg id="Layer_2" xmlns="http://www.w3.org/2000/svg" viewBox="0 0 250.1 250.1"><defs><style>.cls-1{fill:#fff;}.cls-2{fill:#cb2039;}</style></defs><g id="Layer_1-2"><circle class="cls-1" cx="125.05" cy="125.05" r="125.05"/><path class="cls-2" d="M125.05,16.67c-27.38,0-52.38,10.15-71.46,26.9v75.86c0,2.73,2.21,4.95,4.95,4.95h35.88c3.7.03,4.58,2.56,4.9,5.59.33,3.2.57,6.07,1.06,10.21.55,4.71-1.97,6.04-5.85,6.04h-57.49c-2.73,0-4.95-2.21-4.95-4.95v-71.95c-9.79,16.29-15.41,35.35-15.41,55.74,0,59.86,48.52,108.38,108.38,108.38.39,0,.77,0,1.16,0-3.84-30.87-11.01-75.15-14.66-104.58-.29-2.39,1.07-4.62,3.48-4.62h11.07c1.68,0,3.13,1.16,3.51,2.79,0,0,6.42,51,9.08,72.65.52,4.22,4.49,8.51,9.26-.05,12.67-22.75,28.78-51.64,41-72.55.86-1.47,2.4-2.72,4.1-2.7,5.12.07,12.08,0,15.73,0,3.37,0,4.57,2.3,3.48,4.45-15.39,30.22-42.66,69.2-59.08,100.94,46.23-12.38,80.27-54.56,80.27-104.7,0-59.86-48.52-108.38-108.38-108.38Z"/><path class="cls-1" d="M228.77,9.1l-.28,2.13h-3.65v11.87h-2.69v-11.87h-3.77v-2.13h10.39Z"/><path class="cls-1" d="M243.38,23.1h-2.61l-.37-5.85c-.12-2.09-.18-3.75-.18-4.98v-.73l-2.55,10.05h-2.53l-2.71-10.07c.03.89.04,1.57.04,2.03,0,1.23-.04,2.49-.12,3.79l-.34,5.77h-2.59l1.11-14h3.44l2.49,9.81,2.35-9.81h3.49l1.09,14Z"/></g></svg>